<svg id="visual" viewBox="0 0 960 540" width="960" height="540" xmlns="http://www.w3.org/2000/svg" xmlns:xlink="http://www.w3.org/1999/xlink" version="1.1"><g><g transform="translate(190 524)"><path d="M0 -84.2L84.2 0L0 84.2L-84.2 0Z" fill="#364F59"></path></g><g transform="translate(311 311)"><path d="M0 -33L33 0L0 33L-33 0Z" fill="#364F59"></path></g><g transform="translate(821 116)"><path d="M0 -72L72 0L0 72L-72 0Z" fill="#364F59"></path></g><g transform="translate(182 11)"><path d="M0 -36L36 0L0 36L-36 0Z" fill="#364F59"></path></g><g transform="translate(852 394)"><path d="M0 -21L21 0L0 21L-21 0Z" fill="#364F59"></path></g><g transform="translate(68 230)"><path d="M0 -35L35 0L0 35L-35 0Z" fill="#364F59"></path></g><g transform="translate(368 110)"><path d="M0 -83L83 0L0 83L-83 0Z" fill="#364F59"></path></g><g transform="translate(417 505)"><path d="M0 -44L44 0L0 44L-44 0Z" fill="#364F59"></path></g><g transform="translate(532 356)"><path d="M0 -75L75 0L0 75L-75 0Z" fill="#364F59"></path></g></g></svg>